<mxfile host="app.diagrams.net" agent="Mozilla/5.0 (Windows NT 10.0; Win64; x64; rv:128.0) Gecko/20100101 Firefox/128.0" version="26.2.14">
  <diagram name="第 1 页" id="iuGO74FQTjczXt0B2uOD">
    <mxGraphModel dx="1028" dy="940" grid="1" gridSize="10" guides="1" tooltips="1" connect="1" arrows="1" fold="1" page="1" pageScale="1" pageWidth="827" pageHeight="1169" math="0" shadow="0">
      <root>
        <mxCell id="0" />
        <mxCell id="1" parent="0" />
        <mxCell id="Sp9uXq3_jqst47T_t84A-4" value="" style="sketch=0;pointerEvents=1;shadow=0;dashed=0;html=1;strokeColor=none;fillColor=#000000;aspect=fixed;labelPosition=center;verticalLabelPosition=bottom;verticalAlign=top;align=center;outlineConnect=0;shape=mxgraph.vvd.web_browser;" vertex="1" parent="1">
          <mxGeometry x="221" y="677.25" width="50" height="35.5" as="geometry" />
        </mxCell>
        <mxCell id="Sp9uXq3_jqst47T_t84A-5" value="" style="points=[[0.35,0,0],[0.98,0.51,0],[1,0.71,0],[0.67,1,0],[0,0.795,0],[0,0.65,0]];verticalLabelPosition=bottom;sketch=0;html=1;verticalAlign=top;aspect=fixed;align=center;pointerEvents=1;shape=mxgraph.cisco19.user;fillColor=#000000;strokeColor=none;" vertex="1" parent="1">
          <mxGeometry x="111" y="670" width="50" height="50" as="geometry" />
        </mxCell>
        <mxCell id="Sp9uXq3_jqst47T_t84A-6" value="User" style="text;html=1;align=center;verticalAlign=middle;resizable=0;points=[];autosize=1;strokeColor=none;fillColor=none;" vertex="1" parent="1">
          <mxGeometry x="111" y="720" width="50" height="30" as="geometry" />
        </mxCell>
        <mxCell id="Sp9uXq3_jqst47T_t84A-7" value="Browser" style="text;html=1;align=center;verticalAlign=middle;resizable=0;points=[];autosize=1;strokeColor=none;fillColor=none;" vertex="1" parent="1">
          <mxGeometry x="211" y="720" width="70" height="30" as="geometry" />
        </mxCell>
        <mxCell id="Sp9uXq3_jqst47T_t84A-10" value="" style="shape=doubleArrow;whiteSpace=wrap;html=1;" vertex="1" parent="1">
          <mxGeometry x="176" y="687.5" width="30" height="15" as="geometry" />
        </mxCell>
        <mxCell id="Sp9uXq3_jqst47T_t84A-40" style="edgeStyle=orthogonalEdgeStyle;rounded=0;orthogonalLoop=1;jettySize=auto;html=1;exitX=1;exitY=0.5;exitDx=0;exitDy=0;" edge="1" parent="1" source="Sp9uXq3_jqst47T_t84A-11">
          <mxGeometry relative="1" as="geometry">
            <mxPoint x="320" y="590" as="targetPoint" />
          </mxGeometry>
        </mxCell>
        <mxCell id="Sp9uXq3_jqst47T_t84A-11" value="View" style="swimlane;" vertex="1" parent="1">
          <mxGeometry x="91" y="530" width="200" height="120" as="geometry" />
        </mxCell>
        <mxCell id="Sp9uXq3_jqst47T_t84A-19" value="&lt;font face=&quot;Arial&quot;&gt;templates&lt;/font&gt;" style="rounded=0;whiteSpace=wrap;html=1;" vertex="1" parent="Sp9uXq3_jqst47T_t84A-11">
          <mxGeometry x="76" y="40" width="98" height="60" as="geometry" />
        </mxCell>
        <mxCell id="Sp9uXq3_jqst47T_t84A-12" value="Model" style="swimlane;" vertex="1" parent="1">
          <mxGeometry x="640" y="530" width="150" height="200" as="geometry" />
        </mxCell>
        <mxCell id="Sp9uXq3_jqst47T_t84A-32" value="&lt;font face=&quot;Arial&quot;&gt;models.py&lt;/font&gt;" style="rounded=0;whiteSpace=wrap;html=1;" vertex="1" parent="Sp9uXq3_jqst47T_t84A-12">
          <mxGeometry x="32" y="40" width="92" height="60" as="geometry" />
        </mxCell>
        <mxCell id="Sp9uXq3_jqst47T_t84A-16" value="" style="shape=doubleArrow;whiteSpace=wrap;html=1;direction=south;" vertex="1" parent="Sp9uXq3_jqst47T_t84A-12">
          <mxGeometry x="70.5" y="104" width="15" height="30" as="geometry" />
        </mxCell>
        <mxCell id="Sp9uXq3_jqst47T_t84A-35" value="" style="sketch=0;outlineConnect=0;fontColor=#232F3E;gradientColor=none;fillColor=#000000;strokeColor=none;dashed=0;verticalLabelPosition=bottom;verticalAlign=top;align=center;html=1;fontSize=12;fontStyle=0;aspect=fixed;pointerEvents=1;shape=mxgraph.aws4.rds_mysql_instance;" vertex="1" parent="Sp9uXq3_jqst47T_t84A-12">
          <mxGeometry x="53.5" y="142" width="49" height="49" as="geometry" />
        </mxCell>
        <mxCell id="Sp9uXq3_jqst47T_t84A-39" value="" style="edgeStyle=orthogonalEdgeStyle;rounded=0;orthogonalLoop=1;jettySize=auto;html=1;" edge="1" parent="1" source="Sp9uXq3_jqst47T_t84A-13">
          <mxGeometry relative="1" as="geometry">
            <mxPoint x="640" y="630" as="targetPoint" />
          </mxGeometry>
        </mxCell>
        <mxCell id="Sp9uXq3_jqst47T_t84A-13" value="Controller" style="swimlane;startSize=23;" vertex="1" parent="1">
          <mxGeometry x="320" y="530" width="300" height="200" as="geometry" />
        </mxCell>
        <mxCell id="Sp9uXq3_jqst47T_t84A-31" value="" style="edgeStyle=orthogonalEdgeStyle;rounded=0;orthogonalLoop=1;jettySize=auto;html=1;" edge="1" parent="Sp9uXq3_jqst47T_t84A-13" source="Sp9uXq3_jqst47T_t84A-24" target="Sp9uXq3_jqst47T_t84A-25">
          <mxGeometry relative="1" as="geometry" />
        </mxCell>
        <mxCell id="Sp9uXq3_jqst47T_t84A-24" value="&lt;font face=&quot;Arial&quot;&gt;Flask Route&lt;/font&gt;" style="rounded=0;whiteSpace=wrap;html=1;" vertex="1" parent="Sp9uXq3_jqst47T_t84A-13">
          <mxGeometry x="30" y="40" width="92" height="60" as="geometry" />
        </mxCell>
        <mxCell id="Sp9uXq3_jqst47T_t84A-25" value="&lt;font face=&quot;Arial&quot;&gt;app.py&lt;/font&gt;" style="rounded=0;whiteSpace=wrap;html=1;" vertex="1" parent="Sp9uXq3_jqst47T_t84A-13">
          <mxGeometry x="150" y="40" width="92" height="60" as="geometry" />
        </mxCell>
        <mxCell id="Sp9uXq3_jqst47T_t84A-26" value="&lt;font face=&quot;Arial&quot;&gt;tool.py&lt;/font&gt;" style="rounded=0;whiteSpace=wrap;html=1;" vertex="1" parent="Sp9uXq3_jqst47T_t84A-13">
          <mxGeometry x="100" y="130" width="66" height="50" as="geometry" />
        </mxCell>
        <mxCell id="Sp9uXq3_jqst47T_t84A-27" value="&lt;font face=&quot;Arial&quot;&gt;permission.py&lt;/font&gt;" style="rounded=0;whiteSpace=wrap;html=1;" vertex="1" parent="Sp9uXq3_jqst47T_t84A-13">
          <mxGeometry x="200" y="130" width="90" height="50" as="geometry" />
        </mxCell>
        <mxCell id="Sp9uXq3_jqst47T_t84A-29" value="" style="endArrow=classic;startArrow=classic;html=1;rounded=0;" edge="1" parent="Sp9uXq3_jqst47T_t84A-13">
          <mxGeometry width="50" height="50" relative="1" as="geometry">
            <mxPoint x="145" y="126" as="sourcePoint" />
            <mxPoint x="175" y="106" as="targetPoint" />
          </mxGeometry>
        </mxCell>
        <mxCell id="Sp9uXq3_jqst47T_t84A-30" value="" style="endArrow=classic;startArrow=classic;html=1;rounded=0;" edge="1" parent="Sp9uXq3_jqst47T_t84A-13">
          <mxGeometry width="50" height="50" relative="1" as="geometry">
            <mxPoint x="240" y="125" as="sourcePoint" />
            <mxPoint x="210" y="105" as="targetPoint" />
          </mxGeometry>
        </mxCell>
        <mxCell id="Sp9uXq3_jqst47T_t84A-20" value="" style="endArrow=classic;html=1;rounded=0;exitX=0;exitY=0.5;exitDx=0;exitDy=0;edgeStyle=orthogonalEdgeStyle;curved=1;" edge="1" parent="1" source="Sp9uXq3_jqst47T_t84A-19">
          <mxGeometry width="50" height="50" relative="1" as="geometry">
            <mxPoint x="550" y="579" as="sourcePoint" />
            <mxPoint x="140" y="660" as="targetPoint" />
          </mxGeometry>
        </mxCell>
        <mxCell id="Sp9uXq3_jqst47T_t84A-21" value="&lt;div&gt;Jinja2&lt;/div&gt;&lt;div&gt;Render&lt;br&gt;&lt;/div&gt;" style="edgeLabel;html=1;align=center;verticalAlign=middle;resizable=0;points=[];" vertex="1" connectable="0" parent="Sp9uXq3_jqst47T_t84A-20">
          <mxGeometry x="-0.0441" y="-1" relative="1" as="geometry">
            <mxPoint as="offset" />
          </mxGeometry>
        </mxCell>
      </root>
    </mxGraphModel>
  </diagram>
</mxfile>
